<?xml version="1.0" encoding="UTF-8"?><svg id="Layer_1" xmlns="http://www.w3.org/2000/svg" viewBox="0 0 1920 209.7"><defs><style>.cls-1{fill:#036;}</style></defs><polygon class="cls-1" points="91.86 205.77 91.86 62.55 0 62.55 45.32 3.62 273.76 3.62 228.43 62.55 161.96 62.55 161.96 205.77 91.86 205.77"/><path class="cls-1" d="M468.96,205.77l-38.37-50.16h-91.25v50.16h-69.8v-105.76h182.81c16.62,0,25.69-5.74,25.69-19.03s-9.07-18.43-25.69-18.43h-182.51L315.46,3.62h128.12c45.63,0,106.97,13.6,106.97,73.43,0,30.21-17.83,56.81-49.25,64.36,5.44,3.63,19.04,15.71,46.53,47.74l14.51,16.62h-93.37Z"/><rect class="cls-1" x="586.19" y="3.63" width="69.8" height="202.15"/><polygon class="cls-1" points="695.57 205.77 695.57 3.62 765.37 3.62 765.37 147.76 918.88 147.76 873.85 205.77 695.57 205.77"/><rect class="cls-1" x="940.93" y="3.63" width="69.8" height="202.15"/><path class="cls-1" d="M1112.86,97.3v108.47h-63.46V42.6c0-30.21,17.83-42.6,38.07-42.6,8.46,0,16.62,2.11,27.8,11.78l114.52,100.62V3.63h63.46v163.47c0,30.21-18.13,42.6-38.38,42.6-8.76,0-16.62-2.42-27.8-12.09l-114.22-100.32Z"/><path class="cls-1" d="M1474.85,209.1c-100.32,0-150.78-32.33-150.78-104.55S1374.53.3,1474.85.3s151.08,32.03,151.08,104.25-50.76,104.55-151.08,104.55M1474.85,59.22c-60.43,0-80.98,5.14-80.98,45.32s20.55,45.63,80.98,45.63,81.28-5.74,81.28-45.63-20.54-45.32-81.28-45.32"/><path class="cls-1" d="M1640.8,205.77l45.02-58.02h152.59c9.07,0,14.2-3.32,14.2-10.58s-5.14-10.58-14.81-10.58h-114.22c-52.28,0-76.15-24.47-76.15-58.62,0-40.79,25.38-64.36,88.54-64.36h178.28l-45.02,58.92h-139.9c-9.37,0-14.2,2.42-14.2,9.67s4.84,9.97,14.2,9.97h114.82c48.95,0,75.85,19.03,75.85,55.9,0,41.7-19.94,67.69-82.49,67.69h-196.71Z"/></svg>