<?xml version="1.0" encoding="UTF-8"?><svg id="Layer_1" xmlns="http://www.w3.org/2000/svg" viewBox="0 0 1920 848.68"><defs><style>.cls-1{fill:#036;}</style></defs><polygon class="cls-1" points="91.86 844.75 91.86 701.52 0 701.52 45.32 642.6 273.76 642.6 228.44 701.52 161.96 701.52 161.96 844.75 91.86 844.75"/><path class="cls-1" d="M468.96,844.75l-38.38-50.16h-91.25v50.16h-69.8v-105.76h182.81c16.62,0,25.68-5.74,25.68-19.04s-9.07-18.43-25.68-18.43h-182.51l45.63-58.93h128.12c45.63,0,106.96,13.6,106.96,73.43,0,30.22-17.82,56.81-49.25,64.37,5.44,3.63,19.04,15.71,46.53,47.74l14.5,16.62h-93.37Z"/><rect class="cls-1" x="586.2" y="642.6" width="69.8" height="202.15"/><polygon class="cls-1" points="695.58 844.75 695.58 642.6 765.38 642.6 765.38 786.73 918.88 786.73 873.86 844.75 695.58 844.75"/><rect class="cls-1" x="940.93" y="642.6" width="69.8" height="202.15"/><path class="cls-1" d="M1112.86,736.27v108.47h-63.46v-163.17c0-30.21,17.83-42.61,38.07-42.61,8.46,0,16.62,2.12,27.8,11.78l114.52,100.62v-108.78h63.45v163.47c0,30.21-18.13,42.6-38.37,42.6-8.76,0-16.62-2.41-27.8-12.09l-114.22-100.32Z"/><path class="cls-1" d="M1474.85,848.07c-100.32,0-150.78-32.33-150.78-104.55s50.46-104.25,150.78-104.25,151.08,32.03,151.08,104.25-50.76,104.55-151.08,104.55M1474.85,698.2c-60.44,0-80.98,5.14-80.98,45.32s20.55,45.63,80.98,45.63,81.28-5.74,81.28-45.63-20.55-45.32-81.28-45.32"/><path class="cls-1" d="M1640.8,844.75l45.02-58.02h152.59c9.07,0,14.2-3.32,14.2-10.58s-5.14-10.58-14.8-10.58h-114.22c-52.27,0-76.14-24.47-76.14-58.62,0-40.79,25.38-64.37,88.53-64.37h178.28l-45.02,58.93h-139.9c-9.36,0-14.2,2.41-14.2,9.67s4.84,9.97,14.2,9.97h114.82c48.95,0,75.84,19.04,75.84,55.9,0,41.7-19.94,67.68-82.49,67.68h-196.71Z"/><path class="cls-1" d="M805.53,168.36l-67.62,67.62c16.63-115.07,115.64-203.49,235.32-203.49,11.46,0,22.73.83,33.76,2.4l-109.45,109.45h45.95l100.99-100.99c8.42,2.64,16.63,5.74,24.61,9.27l-91.72,91.72h67.93l66.97-66.97c24.97,18.03,46.28,40.8,62.65,66.97h37.38C1166.94,58.58,1076.81,0,973.23,0c-149.03,0-270.28,121.25-270.28,270.28s121.25,270.28,270.28,270.28,270.28-121.25,270.28-270.28c0-20.66-2.34-40.79-6.75-60.13l-27.93,27.93c1.43,10.53,2.19,21.28,2.19,32.21,0,114.87-81.45,210.72-189.75,232.94v-238.79h127.24l95.58-95.58.49-.49h-439.06ZM925.21,503.23c-59.36-12.17-110.65-46.48-144.89-93.9l120.87-120.87h-67.93l-77.69,77.69c-3.52-7.99-6.63-16.2-9.27-24.61l53.08-53.08h-45.95l-15.6,15.6c-1.57-11.03-2.4-22.3-2.4-33.76,0-1.96.03-3.91.07-5.85h189.7s0,0,0,0h0v238.8Z"/></svg>