<?xml version="1.0" encoding="UTF-8"?><svg id="Layer_1" xmlns="http://www.w3.org/2000/svg" viewBox="0 0 1920 1916.18"><defs><style>.cls-1{fill:#036;}</style></defs><path class="cls-1" d="M363.62,596.79l-239.69,239.69C182.87,428.58,533.86,115.16,958.09,115.16c40.64,0,80.58,2.94,119.68,8.5l-387.99,387.99h162.88l357.98-357.98c29.84,9.36,58.94,20.36,87.25,32.85l-325.13,325.13h240.81l237.39-237.39c88.51,63.91,164.04,144.62,222.1,237.39h132.49C1644.76,207.65,1325.26,0,958.09,0,429.8,0,0,429.8,0,958.09s429.8,958.09,958.09,958.09,958.09-429.79,958.09-958.09c0-73.24-8.28-144.59-23.92-213.16l-98.99,98.99c5.07,37.34,7.75,75.44,7.75,114.17,0,407.19-288.72,746.94-672.61,825.71v-846.46h451.03l338.81-338.81,1.74-1.74H363.62ZM787.87,1783.82c-210.43-43.15-392.23-164.75-513.61-332.86l428.47-428.47h-240.81l-275.4,275.4c-12.49-28.31-23.49-57.41-32.85-87.25l188.15-188.15h-162.88l-55.29,55.29c-5.56-39.1-8.5-79.05-8.5-119.68,0-6.94.1-13.85.26-20.75h672.44s0,0,0,0h0v846.48Z"/></svg>